<svg width="16" height="18" viewBox="0 0 16 18" fill="none" xmlns="http://www.w3.org/2000/svg">
<path d="M11.8893 5.66666V4.02777C11.8893 3.51708 11.7887 3.01138 11.5933 2.53956C11.3979 2.06774 11.1114 1.63903 10.7503 1.27791C10.3892 0.916798 9.96047 0.630344 9.48865 0.434909C9.01682 0.239474 8.51113 0.138885 8.00043 0.138885C7.48974 0.138885 6.98404 0.239474 6.51222 0.434909C6.0404 0.630344 5.61169 0.916798 5.25057 1.27791C4.88946 1.63903 4.603 2.06774 4.40757 2.53956C4.21213 3.01138 4.11154 3.51708 4.11154 4.02777V7.91666C4.11154 8.064 4.17008 8.20531 4.27426 8.3095C4.37845 8.41369 4.51976 8.47222 4.6671 8.47222C4.81444 8.47222 4.95575 8.41369 5.05994 8.3095C5.16412 8.20531 5.22266 8.064 5.22266 7.91666V6.77777H9.6671V5.66666H5.22266V4.02777C5.22266 3.29106 5.51531 2.58452 6.03625 2.06359C6.55718 1.54265 7.26372 1.25 8.00043 1.25C8.73715 1.25 9.44368 1.54265 9.96462 2.06359C10.4856 2.58452 10.7782 3.29106 10.7782 4.02777V7.88889C10.7782 8.03623 10.8367 8.17754 10.9409 8.28172C11.0451 8.38591 11.1864 8.44444 11.3338 8.44444C11.4811 8.44444 11.6224 8.38591 11.7266 8.28172C11.8308 8.17754 11.8893 8.03623 11.8893 7.88889V6.77777H14.6671V16.7778H1.33377V6.77777H3.00043V5.66666H0.222656V16.8278C0.222656 17.1092 0.334451 17.3791 0.533448 17.5781C0.732445 17.7771 1.00234 17.8889 1.28377 17.8889H14.7171C14.9985 17.8889 15.2684 17.7771 15.4674 17.5781C15.6664 17.3791 15.7782 17.1092 15.7782 16.8278V5.66666H11.8893Z" fill="#121212"/>
</svg>
