<svg width="34" height="31" viewBox="0 0 34 31" fill="none" xmlns="http://www.w3.org/2000/svg">
<path d="M16.7797 30.3306C16.5526 30.3299 16.3321 30.254 16.1527 30.1147C10.4383 25.6747 6.50191 21.8514 3.74747 18.0795C0.232467 13.2592 -0.5692 8.80892 1.36302 4.85197C2.74025 2.02558 6.69719 -0.286916 11.3222 1.05947C13.5273 1.69643 15.4513 3.06239 16.7797 4.93419C18.1081 3.06239 20.0321 1.69643 22.2372 1.05947C26.8519 -0.266361 30.8191 2.02558 32.1964 4.85197C34.1286 8.80892 33.3269 13.2592 29.8119 18.0795C27.0575 21.8514 23.1211 25.6747 17.4066 30.1147C17.2272 30.254 17.0068 30.3299 16.7797 30.3306ZM8.69108 2.73475C7.59059 2.69192 6.49921 2.9496 5.5341 3.48014C4.56899 4.01068 3.76659 4.79405 3.21302 5.74614C1.61997 9.01447 2.33941 12.6528 5.41247 16.8564C8.6783 21.0688 12.5025 24.817 16.7797 27.9975C21.0562 24.8201 24.8804 21.0755 28.1469 16.8667C31.2303 12.6528 31.9394 9.01447 30.3464 5.75642C29.3186 3.70086 26.2353 2.06669 22.8025 3.03281C21.7018 3.3581 20.6814 3.91024 19.8069 4.65369C18.9325 5.39714 18.2234 6.31543 17.7252 7.34947C17.6478 7.53798 17.5161 7.69921 17.3468 7.81268C17.1775 7.92614 16.9783 7.98673 16.7746 7.98673C16.5708 7.98673 16.3716 7.92614 16.2023 7.81268C16.033 7.69921 15.9013 7.53798 15.8239 7.34947C15.3295 6.31285 14.6216 5.39241 13.7466 4.64849C12.8716 3.90458 11.8493 3.35398 10.7466 3.03281C10.0786 2.83876 9.38676 2.73845 8.69108 2.73475Z" fill="#514A7E"/>
</svg>
