<svg width="20" height="20" viewBox="0 0 20 20" fill="none" xmlns="http://www.w3.org/2000/svg">
<path d="M10.0002 9.44444C10.7694 9.44444 11.5212 9.21636 12.1608 8.78905C12.8003 8.36173 13.2987 7.75437 13.5931 7.04377C13.8874 6.33317 13.9644 5.55124 13.8144 4.79687C13.6643 4.0425 13.2939 3.34957 12.7501 2.8057C12.2062 2.26182 11.5133 1.89144 10.7589 1.74139C10.0045 1.59134 9.22261 1.66835 8.512 1.96269C7.8014 2.25703 7.19404 2.75548 6.76672 3.395C6.33941 4.03453 6.11133 4.78641 6.11133 5.55555C6.11133 6.58695 6.52105 7.57611 7.25036 8.30541C7.97967 9.03472 8.96882 9.44444 10.0002 9.44444ZM10.0002 2.77778C10.5496 2.77778 11.0867 2.94069 11.5435 3.24592C12.0003 3.55114 12.3563 3.98497 12.5665 4.49255C12.7768 5.00012 12.8318 5.55864 12.7246 6.09747C12.6174 6.63631 12.3529 7.13126 11.9644 7.51974C11.5759 7.90822 11.081 8.17278 10.5421 8.27996C10.0033 8.38714 9.44478 8.33213 8.93721 8.12189C8.42963 7.91164 7.99581 7.55561 7.69058 7.09881C7.38535 6.642 7.22244 6.10495 7.22244 5.55555C7.22244 4.81884 7.5151 4.1123 8.03603 3.59137C8.55697 3.07043 9.2635 2.77778 10.0002 2.77778Z" fill="#121212"/>
<path d="M16.9273 13.5389C16.0364 12.5972 14.9628 11.8472 13.7721 11.3346C12.5814 10.8219 11.2987 10.5576 10.0023 10.5576C8.70601 10.5576 7.42328 10.8219 6.2326 11.3346C5.04192 11.8472 3.96829 12.5972 3.07735 13.5389C2.88419 13.7452 2.77691 14.0174 2.77735 14.3V17.2222C2.77735 17.5169 2.89441 17.7995 3.10278 18.0079C3.31116 18.2163 3.59377 18.3333 3.88846 18.3333H16.1107C16.4054 18.3333 16.688 18.2163 16.8964 18.0079C17.1047 17.7995 17.2218 17.5169 17.2218 17.2222V14.3C17.2237 14.0181 17.1185 13.7461 16.9273 13.5389ZM16.1107 17.2222H3.88846V14.2944C4.6758 13.4654 5.62362 12.8052 6.67421 12.354C7.7248 11.9029 8.85621 11.6703 9.99957 11.6703C11.1429 11.6703 12.2743 11.9029 13.3249 12.354C14.3755 12.8052 15.3233 13.4654 16.1107 14.2944V17.2222Z" fill="#121212"/>
</svg>
