<svg width="20" height="20" viewBox="0 0 20 20" fill="none" xmlns="http://www.w3.org/2000/svg">
<path d="M15.0779 18.8888H4.92237C4.70859 18.8837 4.4979 18.8366 4.30233 18.7501C4.10677 18.6636 3.93016 18.5394 3.78261 18.3846C3.63506 18.2299 3.51945 18.0475 3.44238 17.8481C3.36532 17.6486 3.32831 17.4359 3.33348 17.2221V6.23877H4.44459V17.2221C4.43929 17.29 4.44746 17.3583 4.46863 17.423C4.4898 17.4877 4.52356 17.5476 4.56796 17.5992C4.61236 17.6509 4.66653 17.6932 4.72736 17.7238C4.78818 17.7544 4.85445 17.7727 4.92237 17.7777H15.0779C15.1458 17.7727 15.2121 17.7544 15.2729 17.7238C15.3338 17.6932 15.3879 17.6509 15.4323 17.5992C15.4767 17.5476 15.5105 17.4877 15.5317 17.423C15.5528 17.3583 15.561 17.29 15.5557 17.2221V6.23877H16.6668V17.2221C16.672 17.4359 16.635 17.6486 16.5579 17.8481C16.4809 18.0475 16.3652 18.2299 16.2177 18.3846C16.0701 18.5394 15.8935 18.6636 15.698 18.7501C15.5024 18.8366 15.2917 18.8837 15.0779 18.8888Z" fill="#121212"/>
<path d="M17.1004 4.99978H2.77821C2.63087 4.99978 2.48956 4.94125 2.38537 4.83706C2.28119 4.73288 2.22266 4.59157 2.22266 4.44423C2.22266 4.29688 2.28119 4.15558 2.38537 4.05139C2.48956 3.9472 2.63087 3.88867 2.77821 3.88867H17.1004C17.2478 3.88867 17.3891 3.9472 17.4933 4.05139C17.5975 4.15558 17.656 4.29688 17.656 4.44423C17.656 4.59157 17.5975 4.73288 17.4933 4.83706C17.3891 4.94125 17.2478 4.99978 17.1004 4.99978Z" fill="#121212"/>
<path d="M11.667 7.22217H12.7781V15.5555H11.667V7.22217Z" fill="#121212"/>
<path d="M7.22266 7.22217H8.33377V15.5555H7.22266V7.22217Z" fill="#121212"/>
<path d="M12.7782 3.25577H11.7227V2.22244H8.27821V3.25577H7.22266V2.22244C7.2223 1.93713 7.33171 1.66262 7.52821 1.45577C7.72472 1.24892 7.99326 1.12559 8.27821 1.11133H11.7227C12.0076 1.12559 12.2762 1.24892 12.4727 1.45577C12.6692 1.66262 12.7786 1.93713 12.7782 2.22244V3.25577Z" fill="#121212"/>
</svg>
